<svg xmlns="http://www.w3.org/2000/svg" xmlns:xlink="http://www.w3.org/1999/xlink" version="1.1" preserveAspectRatio="xMidYMid meet" viewBox="0 0 50 50" width="50" height="50"><defs><path d="M0 0L50.07 0L50.07 50L0 50L0 0Z" id="dnL334NK"/><path d="M49 25.07C49 38.26 38.26 48.97 25.04 48.97C11.81 48.97 1.07 38.26 1.07 25.07C1.07 11.88 11.81 1.18 25.04 1.18C38.26 1.18 49 11.88 49 25.07Z" id="cqrZomvqe"/><path d="M43.83 22.99L24.99 31.15L6.24 22.99" id="a5zda4NzC"/><path d="M43.83 23.92L24.99 32.08L6.24 23.92" id="aAy5LRiYx"/><path d="M43.83 25L24.99 33.16L6.24 25" id="aLMw4ayE"/><path d="M43.83 25.89L24.99 34.06L6.24 25.89" id="e4XexLbMPP"/><path d="M43.83 26.88L24.99 35.04L6.24 26.88" id="cWwj4iCs"/><path d="M43.83 27.81L24.99 35.98L6.24 27.81" id="d1h92Rgqj5"/><path d="M43.83 28.89L24.99 37.06L6.24 28.89" id="bdO8DGgLB"/><path d="M12 36.54L25.04 42.57L12 36.54Z" id="c1QDMu9q2q"/><path d="M38 36.21L25.04 42.57" id="an3fM8iUo"/><path d="M43.83 29.79L24.99 37.95L6.24 29.79" id="acVp77fsz"/><path d="M43.83 30.44L24.99 38.61L6.24 30.44" id="a1sWDDDxiD"/><path d="M43.83 31.38L24.99 39.54L6.24 31.38" id="a2KOfHKgL8"/><path d="M43.83 32.46L24.99 40.62L6.24 32.46" id="a20RjfJc3z"/><path d="M43.83 33.35L24.99 41.51L6.24 33.35" id="a45OQ9YAtb"/><path d="M43.83 25.89L24.99 34.06L6.24 25.89" id="b3jlsYVXl"/><path d="M43.83 21.96L24.99 30.12L6.24 21.96" id="i6KvIX8GIH"/><path d="M25.04 5.89L6.24 15.28L6.24 34.08L25.04 43.48L43.83 34.08L43.83 15.28L25.04 5.89Z" id="aaW674xTL"/><path d="M43.83 15.46L24.99 23.62L6.24 15.46" id="aLHEAt0PY"/><path d="M25.04 43.19L25.04 23.62" id="b1r1ewY76"/></defs><g><g><use xlink:href="#dnL334NK" opacity="1" fill="#7e928e" fill-opacity="1"/></g><g><use xlink:href="#cqrZomvqe" opacity="1" fill="#ffffff" fill-opacity="1"/></g><g><g><use xlink:href="#a5zda4NzC" opacity="1" fill-opacity="0" stroke="#00c2ff" stroke-width="1" stroke-opacity="1"/></g></g><g><g><use xlink:href="#aAy5LRiYx" opacity="1" fill-opacity="0" stroke="#00c2ff" stroke-width="1" stroke-opacity="1"/></g></g><g><g><use xlink:href="#aLMw4ayE" opacity="1" fill-opacity="0" stroke="#00c2ff" stroke-width="1" stroke-opacity="1"/></g></g><g><g><use xlink:href="#e4XexLbMPP" opacity="1" fill-opacity="0" stroke="#00c2ff" stroke-width="1" stroke-opacity="1"/></g></g><g><g><use xlink:href="#cWwj4iCs" opacity="1" fill-opacity="0" stroke="#00c2ff" stroke-width="1" stroke-opacity="1"/></g></g><g><g><use xlink:href="#d1h92Rgqj5" opacity="1" fill-opacity="0" stroke="#00c2ff" stroke-width="1" stroke-opacity="1"/></g></g><g><g><use xlink:href="#bdO8DGgLB" opacity="1" fill-opacity="0" stroke="#00c2ff" stroke-width="1" stroke-opacity="1"/></g></g><g><g><use xlink:href="#c1QDMu9q2q" opacity="1" fill-opacity="0" stroke="#00c2ff" stroke-width="1" stroke-opacity="1"/></g></g><g><g><use xlink:href="#an3fM8iUo" opacity="1" fill-opacity="0" stroke="#00c2ff" stroke-width="1" stroke-opacity="1"/></g></g><g><g><use xlink:href="#acVp77fsz" opacity="1" fill-opacity="0" stroke="#00c2ff" stroke-width="1" stroke-opacity="1"/></g></g><g><g><use xlink:href="#a1sWDDDxiD" opacity="1" fill-opacity="0" stroke="#00c2ff" stroke-width="1" stroke-opacity="1"/></g></g><g><g><use xlink:href="#a2KOfHKgL8" opacity="1" fill-opacity="0" stroke="#00c2ff" stroke-width="1" stroke-opacity="1"/></g></g><g><g><use xlink:href="#a20RjfJc3z" opacity="1" fill-opacity="0" stroke="#00c2ff" stroke-width="1" stroke-opacity="1"/></g></g><g><g><use xlink:href="#a45OQ9YAtb" opacity="1" fill-opacity="0" stroke="#00c2ff" stroke-width="1" stroke-opacity="1"/></g></g><g><g><use xlink:href="#b3jlsYVXl" opacity="1" fill-opacity="0" stroke="#000000" stroke-width="1" stroke-opacity="1"/></g></g><g><g><use xlink:href="#i6KvIX8GIH" opacity="1" fill-opacity="0" stroke="#00c2ff" stroke-width="1" stroke-opacity="1"/></g></g><g><use xlink:href="#aaW674xTL" opacity="1" fill="#ffffff" fill-opacity="0"/><g><use xlink:href="#aaW674xTL" opacity="1" fill-opacity="0" stroke="#000000" stroke-width="1" stroke-opacity="1"/></g></g><g><g><use xlink:href="#aLHEAt0PY" opacity="1" fill-opacity="0" stroke="#000000" stroke-width="1" stroke-opacity="1"/></g></g><g><g><use xlink:href="#b1r1ewY76" opacity="1" fill-opacity="0" stroke="#000000" stroke-width="1" stroke-opacity="1"/></g></g></g></svg>