<svg xmlns="http://www.w3.org/2000/svg" xmlns:xlink="http://www.w3.org/1999/xlink" version="1.1" preserveAspectRatio="xMidYMid meet" viewBox="0 0 50 50" width="50" height="50"><defs><path d="M0 0L50.07 0L50.07 50L0 50L0 0Z" id="b2yzhO4dPc"/><path d="M49 25.07C49 38.26 38.26 48.97 25.04 48.97C11.81 48.97 1.07 38.26 1.07 25.07C1.07 11.88 11.81 1.18 25.04 1.18C38.26 1.18 49 11.88 49 25.07Z" id="hhJG2nwgV"/><path d="M25.04 5.89L6.24 15.28L6.24 34.08L25.04 43.48L43.83 34.08L43.83 15.28L25.04 5.89Z" id="d7KwMYNVX"/><path d="M26.36 33.86L26.36 33.87L21.08 40.14L11.29 28.52L16.57 22.25L21.08 27.59L34.5 11.65L39.79 17.92L26.36 33.86Z" id="aQfo0vCzJ"/><path d="M43.83 15.46L24.99 23.62L6.24 15.46" id="b74Z3YlSZe"/><path d="M43.83 25.89L24.99 34.06L6.24 25.89" id="cdx8Umnif"/><path d="M25.04 43.19L25.04 23.62" id="dIMVbH1yH"/></defs><g><g><use xlink:href="#b2yzhO4dPc" opacity="1" fill="#7e928e" fill-opacity="1"/></g><g><use xlink:href="#hhJG2nwgV" opacity="1" fill="#ffffff" fill-opacity="1"/></g><g><use xlink:href="#d7KwMYNVX" opacity="1" fill="#ffffff" fill-opacity="1"/><g><use xlink:href="#d7KwMYNVX" opacity="1" fill-opacity="0" stroke="#000000" stroke-width="1" stroke-opacity="1"/></g></g><g><use xlink:href="#aQfo0vCzJ" opacity="1" fill="#43ff00" fill-opacity="1"/><g><use xlink:href="#aQfo0vCzJ" opacity="1" fill-opacity="0" stroke="#000000" stroke-width="0.5" stroke-opacity="1"/></g></g><g><g><use xlink:href="#b74Z3YlSZe" opacity="1" fill-opacity="0" stroke="#000000" stroke-width="1" stroke-opacity="1"/></g></g><g><g><use xlink:href="#cdx8Umnif" opacity="1" fill-opacity="0" stroke="#000000" stroke-width="1" stroke-opacity="1"/></g></g><g><g><use xlink:href="#dIMVbH1yH" opacity="1" fill-opacity="0" stroke="#000000" stroke-width="1" stroke-opacity="1"/></g></g></g></svg>